<?xml version="1.0" encoding="UTF-8" standalone="no"?>
<!-- Created with Inkscape (http://www.inkscape.org/) -->

<svg
   width="185.86729mm"
   height="325.81549mm"
   viewBox="0 0 185.8673 325.81548"
   version="1.1"
   id="svg1"
   inkscape:version="1.3-dev (77bc73e, 2022-05-18)"
   sodipodi:docname="shapes.svg"
   xmlns:inkscape="http://www.inkscape.org/namespaces/inkscape"
   xmlns:sodipodi="http://sodipodi.sourceforge.net/DTD/sodipodi-0.dtd"
   xmlns="http://www.w3.org/2000/svg"
   xmlns:svg="http://www.w3.org/2000/svg">
  <sodipodi:namedview
     id="namedview1"
     pagecolor="#505050"
     bordercolor="#eeeeee"
     borderopacity="1"
     inkscape:showpageshadow="0"
     inkscape:pageopacity="0"
     inkscape:pagecheckerboard="0"
     inkscape:deskcolor="#505050"
     inkscape:document-units="mm"
     showgrid="true"
     inkscape:zoom="0.89038531"
     inkscape:cx="290.8853"
     inkscape:cy="536.28468"
     inkscape:window-width="2056"
     inkscape:window-height="1257"
     inkscape:window-x="0"
     inkscape:window-y="44"
     inkscape:window-maximized="0"
     inkscape:current-layer="layer1">
    <inkscape:grid
       type="xygrid"
       id="grid1"
       originx="-51.629248"
       originy="14.250426" />
  </sodipodi:namedview>
  <defs
     id="defs1" />
  <g
     inkscape:label="Layer 1"
     inkscape:groupmode="layer"
     id="layer1"
     transform="translate(-51.629234,14.250406)">
    <path
       style="fill:#333333;stroke:#ffe680;stroke-width:1;stroke-linecap:round;stroke-linejoin:bevel"
       d="m 62.581357,136.34483 15.829902,-0.23985 8.202112,14.20647 -7.68454,13.31001 H 62.461432 l -8.437515,-14.6142 z"
       id="path5" />
    <path
       style="fill:#333333;stroke:#ffe680;stroke-width:1;stroke-linecap:round;stroke-linejoin:bevel"
       d="M 69.108427,-12.255188 80.181091,6.9232292 h -22.22555 z"
       id="path6" />
    <path
       style="fill:#333333;stroke:#ffe680;stroke-width:1;stroke-linecap:round;stroke-linejoin:bevel"
       d="M 62.600067,21.65775 V 36.76811 H 78.789738 V 21.297978 Z"
       id="path7" />
    <path
       style="fill:#333333;stroke:#ffe680;stroke-width:1;stroke-linecap:round;stroke-linejoin:bevel"
       d="m 128.47026,-13.479957 4.41583,8.6529063 -3.17505,9.9356083 15.98251,-10.5746522 z"
       id="path8" />
    <path
       style="fill:#333333;stroke:#ffe680;stroke-width:1;stroke-linecap:round;stroke-linejoin:bevel"
       d="m 145.0413,6.2349975 8.75442,-7.435257 1.559,-12.5919675 2.87816,12.83181545 8.75442,6.83564005 z"
       id="path9" />
    <path
       style="fill:#333333;stroke:#ffe680;stroke-width:1;stroke-linecap:round;stroke-linejoin:bevel"
       d="m 162.48226,-13.817064 11.71482,6.7429539 14.81365,-5.7729989 -12.25732,9.5474666 -1.56809,14.2416564 -1.55091,-14.6668742 z"
       id="path10" />
    <path
       style="fill:#333333;stroke:#ffe680;stroke-width:1;stroke-linecap:round;stroke-linejoin:bevel"
       d="m 85.347738,47.746105 3.77857,5.756328 3.43933,-5.76692 4.11585,13.801792 -14.63066,-0.959387 z"
       id="path11"
       sodipodi:nodetypes="cccccc" />
    <path
       style="fill:#333333;stroke:#ffe680;stroke-width:1;stroke-linecap:round;stroke-linejoin:bevel"
       d="m 101.59426,17.080779 -9.234109,4.677016 8.874339,14.510742 9.23411,-13.791202 z"
       id="path12" />
    <path
       style="fill:#333333;stroke:#ffe680;stroke-width:1;stroke-linecap:round;stroke-linejoin:bevel"
       d="m 117.27681,46.589637 5.75633,5.156711 6.35595,-5.51648 0.95938,15.110359 -7.43525,-6.116098 -6.5958,4.796941 z"
       id="path13" />
    <path
       style="fill:#333333;stroke:#ffe680;stroke-width:1;stroke-linecap:round;stroke-linejoin:bevel"
       d="m 190.80065,44.176741 -1.19924,7.075488 -7.79502,1.559004 7.19541,1.439082 2.63831,7.55518 0.35977,-7.315332 8.03488,-2.0387 -8.1548,-1.199234 z"
       id="path14" />
    <path
       style="fill:#333333;stroke:#ffe680;stroke-width:1;stroke-linecap:round;stroke-linejoin:bevel"
       d="m 168.9575,45.478172 -1.07931,7.315332 -9.35403,1.079312 9.23411,1.918777 0.35977,7.91495 2.27854,-8.154797 8.39465,-0.71954 z"
       id="path15" />
    <path
       style="fill:#333333;stroke:#ffe680;stroke-width:1;stroke-linecap:round;stroke-linejoin:bevel"
       d="m 146.11777,44.136567 -1.31916,7.675102 -8.39465,2.398472 8.03488,1.079309 1.67893,8.274722 8.87434,-8.754414 z"
       id="path16" />
    <path
       style="fill:#333333;stroke:#ffe680;stroke-width:1;stroke-linecap:round;stroke-linejoin:bevel"
       d="M 68.998877,70.394808 81.362837,78.570975 78.371556,92.131448 62.019222,92.530286 57.43259,79.368652 Z"
       id="path17" />
    <path
       style="fill:#333333;stroke:#ffe680;stroke-width:1;stroke-linecap:round;stroke-linejoin:bevel"
       d="m 67.202489,101.67874 12.36396,8.17617 -2.99128,13.56047 -16.35233,0.39884 -4.58663,-13.16163 10.49992,1.10697 z"
       id="path18"
       sodipodi:nodetypes="ccccccc" />
    <path
       style="fill:#333333;stroke:#ffe680;stroke-width:1;stroke-linecap:round;stroke-linejoin:bevel"
       d="m 100.30599,102.07758 12.36396,8.17617 -8.30495,4.80559 5.31367,8.75488 -16.352321,0.39884 -4.58664,-13.16164 9.566505,0.18628 z"
       id="path19"
       sodipodi:nodetypes="cccccccc" />
    <path
       style="fill:#333333;stroke:#ffe680;stroke-width:1;stroke-linecap:round;stroke-linejoin:bevel"
       d="m 132.01357,101.87816 2.73117,7.99069 9.63279,0.18548 -2.99128,13.56047 -8.30826,-4.94138 -8.04407,5.34022 -4.58664,-13.16164 9.47984,-0.67859 z"
       id="path20"
       sodipodi:nodetypes="ccccccccc" />
    <path
       style="fill:#333333;stroke:#ffe680;stroke-width:1;stroke-linecap:round;stroke-linejoin:bevel"
       d="m 197.21815,99.700029 12.36396,8.176171 -7.44921,4.77849 4.45793,8.78198 -8.44336,-4.7285 -7.90897,5.12734 3.22901,-8.69419 -7.81565,-4.46745 z"
       id="path21"
       sodipodi:nodetypes="ccccccccc" />
    <path
       style="fill:#333333;stroke:#ffe680;stroke-width:1;stroke-linecap:round;stroke-linejoin:bevel"
       d="m 224.81625,98.530119 3.35857,8.184841 9.00539,-0.009 -7.2093,5.88918 4.21802,7.67129 -16.35233,0.39884 2.36129,-8.30564 -6.94793,-4.856 8.2783,-0.85507 z"
       id="path22"
       sodipodi:nodetypes="cccccccccc" />
    <path
       style="fill:#333333;stroke:#ffe680;stroke-width:1;stroke-linecap:round;stroke-linejoin:bevel"
       d="m 107.09839,74.717296 12.00703,3.000739 -2.99128,13.560473 -16.35233,0.398838 -5.211253,-13.250866 z"
       id="path23"
       sodipodi:nodetypes="cccccc" />
    <path
       style="fill:#333333;stroke:#ffe680;stroke-width:1;stroke-linecap:round;stroke-linejoin:bevel"
       d="m 136.79427,73.902205 12.36396,8.176167 -7.09593,8.65274 -9.30304,-0.136551 -7.53127,-7.718512 z"
       id="path24"
       sodipodi:nodetypes="cccccc" />
    <path
       style="fill:#333333;stroke:#ffe680;stroke-width:1;stroke-linecap:round;stroke-linejoin:bevel"
       d="m 162.06027,70.169813 7.99162,9.782334 1.38106,11.954306 -16.35233,0.398838 0.23187,-11.912393 z"
       id="path25"
       sodipodi:nodetypes="cccccc" />
    <path
       style="fill:#333333;stroke:#ffe680;stroke-width:1;stroke-linecap:round;stroke-linejoin:bevel"
       d="m 188.6449,76.266672 11.71464,3.24138 -7.66634,9.53473 -9.08002,0.009 -7.18388,-8.74631 z"
       id="path26"
       sodipodi:nodetypes="cccccc" />
    <path
       style="fill:#333333;stroke:#ffe680;stroke-width:1;stroke-linecap:round;stroke-linejoin:bevel"
       d="m 63.271065,47.356516 6.1161,5.756328 7.075493,-7.19541 0.47969,15.230282 -14.630664,-0.959387 z"
       id="path30" />
    <path
       style="fill:#333333;stroke:#ffe680;stroke-width:1;stroke-linecap:round;stroke-linejoin:bevel"
       d="m 97.684698,47.875968 7.544592,5.496602 7.98453,-5.896783 -4.84468,12.633027 -6.44931,-0.310073 z"
       id="path31"
       sodipodi:nodetypes="cccccc" />
    <path
       style="fill:#333333;stroke:#ffe680;stroke-width:1;stroke-linecap:round;stroke-linejoin:bevel"
       d="m 121.07421,19.998909 2.90297,12.622099 13.2867,2.488261 V 19.639137 Z"
       id="path32"
       sodipodi:nodetypes="ccccc" />
    <path
       style="fill:#333333;stroke:#ffe680;stroke-width:1;stroke-linecap:round;stroke-linejoin:bevel"
       d="m 180.32125,15.756531 -5.59859,22.575144 21.78826,-7.464784 V 15.396759 Z"
       id="path33"
       sodipodi:nodetypes="ccccc" />
    <path
       style="fill:#333333;stroke:#ffe680;stroke-width:1;stroke-linecap:round;stroke-linejoin:bevel"
       d="m 63.588753,172.15002 8.12985,13.15697 7.70005,-13.39682 8.20211,14.20647 -7.68454,13.31001 h -16.4674 l -8.437513,-14.6142 z"
       id="path34"
       sodipodi:nodetypes="cccccccc" />
    <path
       style="fill:#333333;stroke:#ffe680;stroke-width:1;stroke-linecap:round;stroke-linejoin:bevel"
       d="m 104.23035,171.3206 7.90984,6.51552 7.92006,-6.75537 8.20211,14.20647 -7.68454,13.31001 -8.63545,-7.67214 -7.83195,7.67214 -8.43751,-14.6142 z"
       id="path35"
       sodipodi:nodetypes="ccccccccc" />
    <path
       style="fill:#333333;stroke:#ffe680;stroke-width:1;stroke-linecap:round;stroke-linejoin:bevel"
       d="m 65.108587,212.00404 15.8299,-0.23985 -4.2054,10.35903 12.40751,3.84744 -7.68454,13.31001 -9.05016,-8.70891 -7.41724,8.70891 -8.43751,-14.6142 10.67287,-2.5403 z"
       id="path36"
       sodipodi:nodetypes="cccccccccc" />
    <path
       style="fill:#333333;stroke:#ffe680;stroke-width:1;stroke-linecap:round;stroke-linejoin:bevel"
       d="m 178.14954,170.75444 8.96246,8.59825 6.86744,-8.8381 8.20211,14.20647 -7.68454,13.31001 h -16.4674 l -7.81544,-13.78478 10.19314,-0.99261 z"
       id="path37"
       sodipodi:nodetypes="ccccccccc" />
    <path
       style="fill:#333333;stroke:#ffe680;stroke-width:1;stroke-linecap:round;stroke-linejoin:bevel"
       d="m 60.619683,248.36163 7.71834,8.80561 8.11157,-9.04546 8.20211,14.20647 -12.49515,0.28173 4.81061,13.02828 -9.67223,-9.53833 -6.79517,9.53833 -8.437516,-14.6142 11.575716,-2.35055 z"
       id="path38"
       sodipodi:nodetypes="ccccccccccc" />
    <path
       style="fill:#333333;stroke:#ffe680;stroke-width:1;stroke-linecap:round;stroke-linejoin:bevel"
       d="m 97.736243,247.32485 8.962457,8.59825 6.86744,-8.8381 -0.28326,13.89424 8.48537,0.31223 -7.68454,13.31001 -8.8428,-8.08685 -7.624597,8.08685 -7.81544,-13.78478 10.19314,-0.99261 z"
       id="path39"
       sodipodi:nodetypes="ccccccccccc" />
    <path
       style="fill:#333333;stroke:#ffe680;stroke-width:1;stroke-linecap:round;stroke-linejoin:bevel"
       d="m 138.17207,248.58455 7.90984,6.51552 7.92006,-6.75537 8.20211,14.20647 -7.68454,13.31001 -8.63545,-7.67214 -7.83195,7.67214 1.35257,-11.06914 -9.79008,-3.54506 9.34192,-2.7673 z"
       id="path40"
       sodipodi:nodetypes="ccccccccccc" />
    <path
       style="fill:#333333;stroke:#ffe680;stroke-width:1;stroke-linecap:round;stroke-linejoin:bevel"
       d="M 99.065382,-8.6687921 110.13804,3.1258689 H 87.912494 Z"
       id="path41"
       sodipodi:nodetypes="cccc" />
    <path
       style="fill:#333333;stroke:#ffe680;stroke-width:1;stroke-linecap:round;stroke-linejoin:bevel"
       d="M 121.8397,-11.702756 116.87074,4.6425003 111.27015,-11.754054 Z"
       id="path42"
       sodipodi:nodetypes="cccc" />
    <path
       style="fill:#333333;stroke:#ffe680;stroke-width:1;stroke-linecap:round;stroke-linejoin:bevel"
       d="m 147.57375,20.52809 3.56108,12.293042 12.62859,2.817318 -3.72931,-12.069881 z"
       id="path43"
       sodipodi:nodetypes="ccccc" />
    <path
       style="fill:#333333;stroke:#ffe680;stroke-width:1;stroke-linecap:round;stroke-linejoin:bevel"
       d="m 103.33635,137.04405 15.33045,-2.13775 4.5062,14.40625 -3.98862,13.11023 -15.4685,-2.99669 -9.436418,-11.61751 z"
       id="path44"
       sodipodi:nodetypes="ccccccc" />
    <path
       style="fill:#333333;stroke:#ffe680;stroke-width:1;stroke-linecap:round;stroke-linejoin:bevel"
       d="m 155.75071,138.62329 11.69422,9.37065 -10.48039,11.17448 -12.04864,4.63273 -16.13622,-14.55633 14.33668,-14.26365 z"
       id="path45"
       sodipodi:nodetypes="ccccccc" />
    <path
       style="fill:#333333;stroke:#ffe680;stroke-width:1;stroke-linecap:round;stroke-linejoin:bevel"
       d="m 142.325,170.15509 15.8299,-0.23985 8.20211,14.20647 -11.49582,2.53277 3.81128,10.77724 h -16.46739 l 2.5321,-10.44392 -10.96962,-4.17028 z"
       id="path46"
       sodipodi:nodetypes="ccccccccc" />
    <path
       style="fill:#333333;stroke:#ffe680;stroke-width:1;stroke-linecap:round;stroke-linejoin:bevel"
       d="m 103.98117,208.20461 7.3527,6.79986 8.47721,-7.03971 -0.25296,9.77976 8.45507,4.42671 -7.68454,13.31001 h -16.4674 l -8.437517,-14.6142 8.331717,-2.22085 z"
       id="path47"
       sodipodi:nodetypes="cccccccccc" />
    <path
       style="fill:#333333;stroke:#ffe680;stroke-width:1;stroke-linecap:round;stroke-linejoin:bevel"
       d="m 61.367054,283.85939 7.50327,7.4689 8.32664,-7.70875 1.40645,8.19893 6.79566,6.00754 -10.75072,2.68055 3.06618,10.62946 -8.84445,-5.29202 -7.62295,5.29202 2.26961,-10.70459 -10.70713,-3.90961 6.79805,-4.61929 z"
       id="path49"
       sodipodi:nodetypes="ccccccccccccc" />
    <path
       style="fill:#333333;stroke:#ffe680;stroke-width:1;stroke-linecap:round;stroke-linejoin:bevel"
       d="m 163.43109,101.56719 4.85356,11.21672 11.2458,7.2318 -6.69029,5.95685 -8.76913,-14.31685 -7.40303,14.65245 -5.82195,-6.76821 8.88558,-6.36659 z"
       id="path50"
       sodipodi:nodetypes="ccccccccc" />
  </g>
</svg>
